<svg xmlns="http://www.w3.org/2000/svg" viewBox="0 -8 128 132" width="128" height="132" shape-rendering="crispEdges"><style>@keyframes b{50%{transform:translateY(-4px)}}g{animation:b 1.2s steps(1) infinite}</style><g><rect x="40" y="0" width="4" height="4" fill="#1b1411"/><rect x="44" y="0" width="4" height="4" fill="#1b1411"/><rect x="48" y="0" width="4" height="4" fill="#1b1411"/><rect x="56" y="0" width="4" height="4" fill="#1b1411"/><rect x="60" y="0" width="4" height="4" fill="#1b1411"/><rect x="64" y="0" width="4" height="4" fill="#1b1411"/><rect x="68" y="0" width="4" height="4" fill="#1b1411"/><rect x="76" y="0" width="4" height="4" fill="#1b1411"/><rect x="80" y="0" width="4" height="4" fill="#1b1411"/><rect x="84" y="0" width="4" height="4" fill="#1b1411"/><rect x="28" y="4" width="4" height="4" fill="#1b1411"/><rect x="32" y="4" width="4" height="4" fill="#1b1411"/><rect x="36" y="4" width="4" height="4" fill="#1b1411"/><rect x="40" y="4" width="4" height="4" fill="#1b1411"/><rect x="44" y="4" width="4" height="4" fill="#1b1411"/><rect x="48" y="4" width="4" height="4" fill="#1b1411"/><rect x="52" y="4" width="4" height="4" fill="#1b1411"/><rect x="56" y="4" width="4" height="4" fill="#1b1411"/><rect x="60" y="4" width="4" height="4" fill="#3d2b22"/><rect x="64" y="4" width="4" height="4" fill="#1b1411"/><rect x="68" y="4" width="4" height="4" fill="#1b1411"/><rect x="72" y="4" width="4" height="4" fill="#1b1411"/><rect x="76" y="4" width="4" height="4" fill="#1b1411"/><rect x="80" y="4" width="4" height="4" fill="#1b1411"/><rect x="84" y="4" width="4" height="4" fill="#1b1411"/><rect x="88" y="4" width="4" height="4" fill="#1b1411"/><rect x="92" y="4" width="4" height="4" fill="#1b1411"/><rect x="96" y="4" width="4" height="4" fill="#3d2b22"/><rect x="20" y="8" width="4" height="4" fill="#1b1411"/><rect x="24" y="8" width="4" height="4" fill="#1b1411"/><rect x="28" y="8" width="4" height="4" fill="#1b1411"/><rect x="32" y="8" width="4" height="4" fill="#1b1411"/><rect x="36" y="8" width="4" height="4" fill="#1b1411"/><rect x="40" y="8" width="4" height="4" fill="#1b1411"/><rect x="44" y="8" width="4" height="4" fill="#1b1411"/><rect x="48" y="8" width="4" height="4" fill="#3d2b22"/><rect x="52" y="8" width="4" height="4" fill="#1b1411"/><rect x="56" y="8" width="4" height="4" fill="#1b1411"/><rect x="60" y="8" width="4" height="4" fill="#1b1411"/><rect x="64" y="8" width="4" height="4" fill="#1b1411"/><rect x="68" y="8" width="4" height="4" fill="#1b1411"/><rect x="72" y="8" width="4" height="4" fill="#1b1411"/><rect x="76" y="8" width="4" height="4" fill="#1b1411"/><rect x="80" y="8" width="4" height="4" fill="#1b1411"/><rect x="84" y="8" width="4" height="4" fill="#3d2b22"/><rect x="88" y="8" width="4" height="4" fill="#1b1411"/><rect x="92" y="8" width="4" height="4" fill="#1b1411"/><rect x="96" y="8" width="4" height="4" fill="#1b1411"/><rect x="100" y="8" width="4" height="4" fill="#1b1411"/><rect x="104" y="8" width="4" height="4" fill="#1b1411"/><rect x="16" y="12" width="4" height="4" fill="#1b1411"/><rect x="20" y="12" width="4" height="4" fill="#1b1411"/><rect x="24" y="12" width="4" height="4" fill="#1b1411"/><rect x="28" y="12" width="4" height="4" fill="#1b1411"/><rect x="32" y="12" width="4" height="4" fill="#1b1411"/><rect x="36" y="12" width="4" height="4" fill="#3d2b22"/><rect x="40" y="12" width="4" height="4" fill="#1b1411"/><rect x="44" y="12" width="4" height="4" fill="#1b1411"/><rect x="48" y="12" width="4" height="4" fill="#1b1411"/><rect x="52" y="12" width="4" height="4" fill="#1b1411"/><rect x="56" y="12" width="4" height="4" fill="#1b1411"/><rect x="60" y="12" width="4" height="4" fill="#1b1411"/><rect x="64" y="12" width="4" height="4" fill="#1b1411"/><rect x="68" y="12" width="4" height="4" fill="#1b1411"/><rect x="72" y="12" width="4" height="4" fill="#3d2b22"/><rect x="76" y="12" width="4" height="4" fill="#1b1411"/><rect x="80" y="12" width="4" height="4" fill="#1b1411"/><rect x="84" y="12" width="4" height="4" fill="#1b1411"/><rect x="88" y="12" width="4" height="4" fill="#1b1411"/><rect x="92" y="12" width="4" height="4" fill="#1b1411"/><rect x="96" y="12" width="4" height="4" fill="#1b1411"/><rect x="100" y="12" width="4" height="4" fill="#1b1411"/><rect x="104" y="12" width="4" height="4" fill="#1b1411"/><rect x="108" y="12" width="4" height="4" fill="#3d2b22"/><rect x="12" y="16" width="4" height="4" fill="#1b1411"/><rect x="16" y="16" width="4" height="4" fill="#1b1411"/><rect x="20" y="16" width="4" height="4" fill="#1b1411"/><rect x="24" y="16" width="4" height="4" fill="#3d2b22"/><rect x="28" y="16" width="4" height="4" fill="#1b1411"/><rect x="32" y="16" width="4" height="4" fill="#1b1411"/><rect x="36" y="16" width="4" height="4" fill="#1b1411"/><rect x="40" y="16" width="4" height="4" fill="#1b1411"/><rect x="44" y="16" width="4" height="4" fill="#1b1411"/><rect x="48" y="16" width="4" height="4" fill="#1b1411"/><rect x="52" y="16" width="4" height="4" fill="#1b1411"/><rect x="56" y="16" width="4" height="4" fill="#1b1411"/><rect x="60" y="16" width="4" height="4" fill="#3d2b22"/><rect x="64" y="16" width="4" height="4" fill="#1b1411"/><rect x="68" y="16" width="4" height="4" fill="#1b1411"/><rect x="72" y="16" width="4" height="4" fill="#1b1411"/><rect x="76" y="16" width="4" height="4" fill="#1b1411"/><rect x="80" y="16" width="4" height="4" fill="#1b1411"/><rect x="84" y="16" width="4" height="4" fill="#1b1411"/><rect x="88" y="16" width="4" height="4" fill="#1b1411"/><rect x="92" y="16" width="4" height="4" fill="#1b1411"/><rect x="96" y="16" width="4" height="4" fill="#3d2b22"/><rect x="100" y="16" width="4" height="4" fill="#1b1411"/><rect x="104" y="16" width="4" height="4" fill="#1b1411"/><rect x="108" y="16" width="4" height="4" fill="#1b1411"/><rect x="112" y="16" width="4" height="4" fill="#1b1411"/><rect x="12" y="20" width="4" height="4" fill="#3d2b22"/><rect x="16" y="20" width="4" height="4" fill="#1b1411"/><rect x="20" y="20" width="4" height="4" fill="#1b1411"/><rect x="24" y="20" width="4" height="4" fill="#1b1411"/><rect x="28" y="20" width="4" height="4" fill="#1b1411"/><rect x="32" y="20" width="4" height="4" fill="#1b1411"/><rect x="36" y="20" width="4" height="4" fill="#1b1411"/><rect x="40" y="20" width="4" height="4" fill="#1b1411"/><rect x="44" y="20" width="4" height="4" fill="#1b1411"/><rect x="48" y="20" width="4" height="4" fill="#3d2b22"/><rect x="52" y="20" width="4" height="4" fill="#1b1411"/><rect x="56" y="20" width="4" height="4" fill="#1b1411"/><rect x="60" y="20" width="4" height="4" fill="#1b1411"/><rect x="64" y="20" width="4" height="4" fill="#1b1411"/><rect x="68" y="20" width="4" height="4" fill="#1b1411"/><rect x="72" y="20" width="4" height="4" fill="#1b1411"/><rect x="76" y="20" width="4" height="4" fill="#1b1411"/><rect x="80" y="20" width="4" height="4" fill="#1b1411"/><rect x="84" y="20" width="4" height="4" fill="#3d2b22"/><rect x="88" y="20" width="4" height="4" fill="#1b1411"/><rect x="92" y="20" width="4" height="4" fill="#1b1411"/><rect x="96" y="20" width="4" height="4" fill="#1b1411"/><rect x="100" y="20" width="4" height="4" fill="#1b1411"/><rect x="104" y="20" width="4" height="4" fill="#1b1411"/><rect x="108" y="20" width="4" height="4" fill="#1b1411"/><rect x="112" y="20" width="4" height="4" fill="#1b1411"/><rect x="8" y="24" width="4" height="4" fill="#1b1411"/><rect x="12" y="24" width="4" height="4" fill="#1b1411"/><rect x="16" y="24" width="4" height="4" fill="#1b1411"/><rect x="20" y="24" width="4" height="4" fill="#1b1411"/><rect x="24" y="24" width="4" height="4" fill="#1b1411"/><rect x="28" y="24" width="4" height="4" fill="#1b1411"/><rect x="32" y="24" width="4" height="4" fill="#1b1411"/><rect x="36" y="24" width="4" height="4" fill="#3d2b22"/><rect x="40" y="24" width="4" height="4" fill="#1b1411"/><rect x="44" y="24" width="4" height="4" fill="#1b1411"/><rect x="48" y="24" width="4" height="4" fill="#1b1411"/><rect x="52" y="24" width="4" height="4" fill="#1b1411"/><rect x="56" y="24" width="4" height="4" fill="#1b1411"/><rect x="60" y="24" width="4" height="4" fill="#1b1411"/><rect x="64" y="24" width="4" height="4" fill="#1b1411"/><rect x="68" y="24" width="4" height="4" fill="#1b1411"/><rect x="72" y="24" width="4" height="4" fill="#3d2b22"/><rect x="76" y="24" width="4" height="4" fill="#1b1411"/><rect x="80" y="24" width="4" height="4" fill="#1b1411"/><rect x="84" y="24" width="4" height="4" fill="#1b1411"/><rect x="88" y="24" width="4" height="4" fill="#1b1411"/><rect x="92" y="24" width="4" height="4" fill="#1b1411"/><rect x="96" y="24" width="4" height="4" fill="#1b1411"/><rect x="100" y="24" width="4" height="4" fill="#1b1411"/><rect x="104" y="24" width="4" height="4" fill="#1b1411"/><rect x="108" y="24" width="4" height="4" fill="#3d2b22"/><rect x="112" y="24" width="4" height="4" fill="#1b1411"/><rect x="116" y="24" width="4" height="4" fill="#1b1411"/><rect x="8" y="28" width="4" height="4" fill="#1b1411"/><rect x="12" y="28" width="4" height="4" fill="#1b1411"/><rect x="16" y="28" width="4" height="4" fill="#1b1411"/><rect x="20" y="28" width="4" height="4" fill="#1b1411"/><rect x="24" y="28" width="4" height="4" fill="#3d2b22"/><rect x="28" y="28" width="4" height="4" fill="#1b1411"/><rect x="32" y="28" width="4" height="4" fill="#1b1411"/><rect x="36" y="28" width="4" height="4" fill="#1b1411"/><rect x="40" y="28" width="4" height="4" fill="#1b1411"/><rect x="44" y="28" width="4" height="4" fill="#1b1411"/><rect x="48" y="28" width="4" height="4" fill="#1b1411"/><rect x="52" y="28" width="4" height="4" fill="#1b1411"/><rect x="56" y="28" width="4" height="4" fill="#1b1411"/><rect x="60" y="28" width="4" height="4" fill="#3d2b22"/><rect x="64" y="28" width="4" height="4" fill="#1b1411"/><rect x="68" y="28" width="4" height="4" fill="#1b1411"/><rect x="72" y="28" width="4" height="4" fill="#1b1411"/><rect x="76" y="28" width="4" height="4" fill="#1b1411"/><rect x="80" y="28" width="4" height="4" fill="#1b1411"/><rect x="84" y="28" width="4" height="4" fill="#1b1411"/><rect x="88" y="28" width="4" height="4" fill="#1b1411"/><rect x="92" y="28" width="4" height="4" fill="#1b1411"/><rect x="96" y="28" width="4" height="4" fill="#3d2b22"/><rect x="100" y="28" width="4" height="4" fill="#1b1411"/><rect x="104" y="28" width="4" height="4" fill="#1b1411"/><rect x="108" y="28" width="4" height="4" fill="#1b1411"/><rect x="112" y="28" width="4" height="4" fill="#1b1411"/><rect x="116" y="28" width="4" height="4" fill="#1b1411"/><rect x="8" y="32" width="4" height="4" fill="#1b1411"/><rect x="12" y="32" width="4" height="4" fill="#3d2b22"/><rect x="16" y="32" width="4" height="4" fill="#1b1411"/><rect x="20" y="32" width="4" height="4" fill="#1b1411"/><rect x="24" y="32" width="4" height="4" fill="#1b1411"/><rect x="28" y="32" width="4" height="4" fill="#c68b67"/><rect x="32" y="32" width="4" height="4" fill="#c68b67"/><rect x="36" y="32" width="4" height="4" fill="#1b1411"/><rect x="40" y="32" width="4" height="4" fill="#1b1411"/><rect x="44" y="32" width="4" height="4" fill="#1b1411"/><rect x="48" y="32" width="4" height="4" fill="#c68b67"/><rect x="52" y="32" width="4" height="4" fill="#c68b67"/><rect x="56" y="32" width="4" height="4" fill="#c68b67"/><rect x="60" y="32" width="4" height="4" fill="#1b1411"/><rect x="64" y="32" width="4" height="4" fill="#1b1411"/><rect x="68" y="32" width="4" height="4" fill="#c68b67"/><rect x="72" y="32" width="4" height="4" fill="#c68b67"/><rect x="76" y="32" width="4" height="4" fill="#c68b67"/><rect x="80" y="32" width="4" height="4" fill="#1b1411"/><rect x="84" y="32" width="4" height="4" fill="#3d2b22"/><rect x="88" y="32" width="4" height="4" fill="#1b1411"/><rect x="92" y="32" width="4" height="4" fill="#c68b67"/><rect x="96" y="32" width="4" height="4" fill="#c68b67"/><rect x="100" y="32" width="4" height="4" fill="#1b1411"/><rect x="104" y="32" width="4" height="4" fill="#1b1411"/><rect x="108" y="32" width="4" height="4" fill="#1b1411"/><rect x="112" y="32" width="4" height="4" fill="#1b1411"/><rect x="116" y="32" width="4" height="4" fill="#1b1411"/><rect x="8" y="36" width="4" height="4" fill="#1b1411"/><rect x="12" y="36" width="4" height="4" fill="#1b1411"/><rect x="16" y="36" width="4" height="4" fill="#1b1411"/><rect x="20" y="36" width="4" height="4" fill="#1b1411"/><rect x="24" y="36" width="4" height="4" fill="#c68b67"/><rect x="28" y="36" width="4" height="4" fill="#2a1a14"/><rect x="32" y="36" width="4" height="4" fill="#2a1a14"/><rect x="36" y="36" width="4" height="4" fill="#2a1a14"/><rect x="40" y="36" width="4" height="4" fill="#2a1a14"/><rect x="44" y="36" width="4" height="4" fill="#2a1a14"/><rect x="48" y="36" width="4" height="4" fill="#2a1a14"/><rect x="52" y="36" width="4" height="4" fill="#c68b67"/><rect x="56" y="36" width="4" height="4" fill="#c68b67"/><rect x="60" y="36" width="4" height="4" fill="#c68b67"/><rect x="64" y="36" width="4" height="4" fill="#c68b67"/><rect x="68" y="36" width="4" height="4" fill="#c68b67"/><rect x="72" y="36" width="4" height="4" fill="#c68b67"/><rect x="76" y="36" width="4" height="4" fill="#2a1a14"/><rect x="80" y="36" width="4" height="4" fill="#2a1a14"/><rect x="84" y="36" width="4" height="4" fill="#2a1a14"/><rect x="88" y="36" width="4" height="4" fill="#2a1a14"/><rect x="92" y="36" width="4" height="4" fill="#2a1a14"/><rect x="96" y="36" width="4" height="4" fill="#2a1a14"/><rect x="100" y="36" width="4" height="4" fill="#c68b67"/><rect x="104" y="36" width="4" height="4" fill="#1b1411"/><rect x="108" y="36" width="4" height="4" fill="#3d2b22"/><rect x="112" y="36" width="4" height="4" fill="#1b1411"/><rect x="116" y="36" width="4" height="4" fill="#1b1411"/><rect x="8" y="40" width="4" height="4" fill="#1b1411"/><rect x="12" y="40" width="4" height="4" fill="#1b1411"/><rect x="16" y="40" width="4" height="4" fill="#1b1411"/><rect x="20" y="40" width="4" height="4" fill="#1b1411"/><rect x="24" y="40" width="4" height="4" fill="#c68b67"/><rect x="28" y="40" width="4" height="4" fill="#c68b67"/><rect x="32" y="40" width="4" height="4" fill="#c68b67"/><rect x="36" y="40" width="4" height="4" fill="#c68b67"/><rect x="40" y="40" width="4" height="4" fill="#c68b67"/><rect x="44" y="40" width="4" height="4" fill="#c68b67"/><rect x="48" y="40" width="4" height="4" fill="#c68b67"/><rect x="52" y="40" width="4" height="4" fill="#c68b67"/><rect x="56" y="40" width="4" height="4" fill="#c68b67"/><rect x="60" y="40" width="4" height="4" fill="#c68b67"/><rect x="64" y="40" width="4" height="4" fill="#c68b67"/><rect x="68" y="40" width="4" height="4" fill="#c68b67"/><rect x="72" y="40" width="4" height="4" fill="#c68b67"/><rect x="76" y="40" width="4" height="4" fill="#c68b67"/><rect x="80" y="40" width="4" height="4" fill="#c68b67"/><rect x="84" y="40" width="4" height="4" fill="#c68b67"/><rect x="88" y="40" width="4" height="4" fill="#c68b67"/><rect x="92" y="40" width="4" height="4" fill="#c68b67"/><rect x="96" y="40" width="4" height="4" fill="#c68b67"/><rect x="100" y="40" width="4" height="4" fill="#c68b67"/><rect x="104" y="40" width="4" height="4" fill="#1b1411"/><rect x="108" y="40" width="4" height="4" fill="#1b1411"/><rect x="112" y="40" width="4" height="4" fill="#1b1411"/><rect x="116" y="40" width="4" height="4" fill="#1b1411"/><rect x="8" y="44" width="4" height="4" fill="#1b1411"/><rect x="12" y="44" width="4" height="4" fill="#3d2b22"/><rect x="16" y="44" width="4" height="4" fill="#1b1411"/><rect x="20" y="44" width="4" height="4" fill="#1b1411"/><rect x="24" y="44" width="4" height="4" fill="#c68b67"/><rect x="28" y="44" width="4" height="4" fill="#0d0d0f"/><rect x="32" y="44" width="4" height="4" fill="#0d0d0f"/><rect x="36" y="44" width="4" height="4" fill="#0d0d0f"/><rect x="40" y="44" width="4" height="4" fill="#0d0d0f"/><rect x="44" y="44" width="4" height="4" fill="#0d0d0f"/><rect x="48" y="44" width="4" height="4" fill="#0d0d0f"/><rect x="52" y="44" width="4" height="4" fill="#0d0d0f"/><rect x="56" y="44" width="4" height="4" fill="#c68b67"/><rect x="60" y="44" width="4" height="4" fill="#c68b67"/><rect x="64" y="44" width="4" height="4" fill="#c68b67"/><rect x="68" y="44" width="4" height="4" fill="#c68b67"/><rect x="72" y="44" width="4" height="4" fill="#0d0d0f"/><rect x="76" y="44" width="4" height="4" fill="#0d0d0f"/><rect x="80" y="44" width="4" height="4" fill="#0d0d0f"/><rect x="84" y="44" width="4" height="4" fill="#0d0d0f"/><rect x="88" y="44" width="4" height="4" fill="#0d0d0f"/><rect x="92" y="44" width="4" height="4" fill="#0d0d0f"/><rect x="96" y="44" width="4" height="4" fill="#0d0d0f"/><rect x="100" y="44" width="4" height="4" fill="#c68b67"/><rect x="104" y="44" width="4" height="4" fill="#1b1411"/><rect x="108" y="44" width="4" height="4" fill="#1b1411"/><rect x="112" y="44" width="4" height="4" fill="#1b1411"/><rect x="116" y="44" width="4" height="4" fill="#1b1411"/><rect x="8" y="48" width="4" height="4" fill="#1b1411"/><rect x="12" y="48" width="4" height="4" fill="#1b1411"/><rect x="16" y="48" width="4" height="4" fill="#1b1411"/><rect x="20" y="48" width="4" height="4" fill="#1b1411"/><rect x="24" y="48" width="4" height="4" fill="#c68b67"/><rect x="28" y="48" width="4" height="4" fill="#0d0d0f"/><rect x="32" y="48" width="4" height="4" fill="#d9a888"/><rect x="36" y="48" width="4" height="4" fill="#d9a888"/><rect x="40" y="48" width="4" height="4" fill="#d9a888"/><rect x="44" y="48" width="4" height="4" fill="#d9a888"/><rect x="48" y="48" width="4" height="4" fill="#d9a888"/><rect x="52" y="48" width="4" height="4" fill="#0d0d0f"/><rect x="56" y="48" width="4" height="4" fill="#0d0d0f"/><rect x="60" y="48" width="4" height="4" fill="#0d0d0f"/><rect x="64" y="48" width="4" height="4" fill="#0d0d0f"/><rect x="68" y="48" width="4" height="4" fill="#0d0d0f"/><rect x="72" y="48" width="4" height="4" fill="#0d0d0f"/><rect x="76" y="48" width="4" height="4" fill="#d9a888"/><rect x="80" y="48" width="4" height="4" fill="#d9a888"/><rect x="84" y="48" width="4" height="4" fill="#d9a888"/><rect x="88" y="48" width="4" height="4" fill="#d9a888"/><rect x="92" y="48" width="4" height="4" fill="#d9a888"/><rect x="96" y="48" width="4" height="4" fill="#0d0d0f"/><rect x="100" y="48" width="4" height="4" fill="#c68b67"/><rect x="104" y="48" width="4" height="4" fill="#1b1411"/><rect x="108" y="48" width="4" height="4" fill="#3d2b22"/><rect x="112" y="48" width="4" height="4" fill="#1b1411"/><rect x="116" y="48" width="4" height="4" fill="#1b1411"/><rect x="8" y="52" width="4" height="4" fill="#1b1411"/><rect x="12" y="52" width="4" height="4" fill="#1b1411"/><rect x="16" y="52" width="4" height="4" fill="#1b1411"/><rect x="20" y="52" width="4" height="4" fill="#1b1411"/><rect x="24" y="52" width="4" height="4" fill="#c68b67"/><rect x="28" y="52" width="4" height="4" fill="#0d0d0f"/><rect x="32" y="52" width="4" height="4" fill="#d9a888"/><rect x="36" y="52" width="4" height="4" fill="#2b1b12"/><rect x="40" y="52" width="4" height="4" fill="#2b1b12"/><rect x="44" y="52" width="4" height="4" fill="#ffffff"/><rect x="48" y="52" width="4" height="4" fill="#d9a888"/><rect x="52" y="52" width="4" height="4" fill="#0d0d0f"/><rect x="56" y="52" width="4" height="4" fill="#c68b67"/><rect x="60" y="52" width="4" height="4" fill="#c68b67"/><rect x="64" y="52" width="4" height="4" fill="#c68b67"/><rect x="68" y="52" width="4" height="4" fill="#c68b67"/><rect x="72" y="52" width="4" height="4" fill="#0d0d0f"/><rect x="76" y="52" width="4" height="4" fill="#d9a888"/><rect x="80" y="52" width="4" height="4" fill="#ffffff"/><rect x="84" y="52" width="4" height="4" fill="#2b1b12"/><rect x="88" y="52" width="4" height="4" fill="#2b1b12"/><rect x="92" y="52" width="4" height="4" fill="#d9a888"/><rect x="96" y="52" width="4" height="4" fill="#0d0d0f"/><rect x="100" y="52" width="4" height="4" fill="#c68b67"/><rect x="104" y="52" width="4" height="4" fill="#1b1411"/><rect x="108" y="52" width="4" height="4" fill="#1b1411"/><rect x="112" y="52" width="4" height="4" fill="#1b1411"/><rect x="116" y="52" width="4" height="4" fill="#1b1411"/><rect x="8" y="56" width="4" height="4" fill="#1b1411"/><rect x="12" y="56" width="4" height="4" fill="#3d2b22"/><rect x="16" y="56" width="4" height="4" fill="#1b1411"/><rect x="20" y="56" width="4" height="4" fill="#1b1411"/><rect x="24" y="56" width="4" height="4" fill="#c68b67"/><rect x="28" y="56" width="4" height="4" fill="#0d0d0f"/><rect x="32" y="56" width="4" height="4" fill="#d9a888"/><rect x="36" y="56" width="4" height="4" fill="#2b1b12"/><rect x="40" y="56" width="4" height="4" fill="#2b1b12"/><rect x="44" y="56" width="4" height="4" fill="#2b1b12"/><rect x="48" y="56" width="4" height="4" fill="#d9a888"/><rect x="52" y="56" width="4" height="4" fill="#0d0d0f"/><rect x="56" y="56" width="4" height="4" fill="#c68b67"/><rect x="60" y="56" width="4" height="4" fill="#c68b67"/><rect x="64" y="56" width="4" height="4" fill="#c68b67"/><rect x="68" y="56" width="4" height="4" fill="#c68b67"/><rect x="72" y="56" width="4" height="4" fill="#0d0d0f"/><rect x="76" y="56" width="4" height="4" fill="#d9a888"/><rect x="80" y="56" width="4" height="4" fill="#2b1b12"/><rect x="84" y="56" width="4" height="4" fill="#2b1b12"/><rect x="88" y="56" width="4" height="4" fill="#2b1b12"/><rect x="92" y="56" width="4" height="4" fill="#d9a888"/><rect x="96" y="56" width="4" height="4" fill="#0d0d0f"/><rect x="100" y="56" width="4" height="4" fill="#c68b67"/><rect x="104" y="56" width="4" height="4" fill="#1b1411"/><rect x="108" y="56" width="4" height="4" fill="#1b1411"/><rect x="112" y="56" width="4" height="4" fill="#1b1411"/><rect x="116" y="56" width="4" height="4" fill="#1b1411"/><rect x="8" y="60" width="4" height="4" fill="#1b1411"/><rect x="12" y="60" width="4" height="4" fill="#1b1411"/><rect x="16" y="60" width="4" height="4" fill="#1b1411"/><rect x="20" y="60" width="4" height="4" fill="#c68b67"/><rect x="24" y="60" width="4" height="4" fill="#c68b67"/><rect x="28" y="60" width="4" height="4" fill="#0d0d0f"/><rect x="32" y="60" width="4" height="4" fill="#0d0d0f"/><rect x="36" y="60" width="4" height="4" fill="#0d0d0f"/><rect x="40" y="60" width="4" height="4" fill="#0d0d0f"/><rect x="44" y="60" width="4" height="4" fill="#0d0d0f"/><rect x="48" y="60" width="4" height="4" fill="#0d0d0f"/><rect x="52" y="60" width="4" height="4" fill="#0d0d0f"/><rect x="56" y="60" width="4" height="4" fill="#c68b67"/><rect x="60" y="60" width="4" height="4" fill="#c68b67"/><rect x="64" y="60" width="4" height="4" fill="#c68b67"/><rect x="68" y="60" width="4" height="4" fill="#c68b67"/><rect x="72" y="60" width="4" height="4" fill="#0d0d0f"/><rect x="76" y="60" width="4" height="4" fill="#0d0d0f"/><rect x="80" y="60" width="4" height="4" fill="#0d0d0f"/><rect x="84" y="60" width="4" height="4" fill="#0d0d0f"/><rect x="88" y="60" width="4" height="4" fill="#0d0d0f"/><rect x="92" y="60" width="4" height="4" fill="#0d0d0f"/><rect x="96" y="60" width="4" height="4" fill="#0d0d0f"/><rect x="100" y="60" width="4" height="4" fill="#c68b67"/><rect x="104" y="60" width="4" height="4" fill="#c68b67"/><rect x="108" y="60" width="4" height="4" fill="#3d2b22"/><rect x="112" y="60" width="4" height="4" fill="#1b1411"/><rect x="116" y="60" width="4" height="4" fill="#1b1411"/><rect x="8" y="64" width="4" height="4" fill="#1b1411"/><rect x="12" y="64" width="4" height="4" fill="#1b1411"/><rect x="16" y="64" width="4" height="4" fill="#1b1411"/><rect x="20" y="64" width="4" height="4" fill="#a56f50"/><rect x="24" y="64" width="4" height="4" fill="#c68b67"/><rect x="28" y="64" width="4" height="4" fill="#c68b67"/><rect x="32" y="64" width="4" height="4" fill="#c68b67"/><rect x="36" y="64" width="4" height="4" fill="#c68b67"/><rect x="40" y="64" width="4" height="4" fill="#c68b67"/><rect x="44" y="64" width="4" height="4" fill="#c68b67"/><rect x="48" y="64" width="4" height="4" fill="#c68b67"/><rect x="52" y="64" width="4" height="4" fill="#c68b67"/><rect x="56" y="64" width="4" height="4" fill="#c68b67"/><rect x="60" y="64" width="4" height="4" fill="#c68b67"/><rect x="64" y="64" width="4" height="4" fill="#c68b67"/><rect x="68" y="64" width="4" height="4" fill="#c68b67"/><rect x="72" y="64" width="4" height="4" fill="#c68b67"/><rect x="76" y="64" width="4" height="4" fill="#c68b67"/><rect x="80" y="64" width="4" height="4" fill="#c68b67"/><rect x="84" y="64" width="4" height="4" fill="#c68b67"/><rect x="88" y="64" width="4" height="4" fill="#c68b67"/><rect x="92" y="64" width="4" height="4" fill="#c68b67"/><rect x="96" y="64" width="4" height="4" fill="#c68b67"/><rect x="100" y="64" width="4" height="4" fill="#c68b67"/><rect x="104" y="64" width="4" height="4" fill="#a56f50"/><rect x="108" y="64" width="4" height="4" fill="#1b1411"/><rect x="112" y="64" width="4" height="4" fill="#1b1411"/><rect x="116" y="64" width="4" height="4" fill="#1b1411"/><rect x="12" y="68" width="4" height="4" fill="#3d2b22"/><rect x="16" y="68" width="4" height="4" fill="#1b1411"/><rect x="20" y="68" width="4" height="4" fill="#c68b67"/><rect x="24" y="68" width="4" height="4" fill="#c68b67"/><rect x="28" y="68" width="4" height="4" fill="#c68b67"/><rect x="32" y="68" width="4" height="4" fill="#c68b67"/><rect x="36" y="68" width="4" height="4" fill="#c68b67"/><rect x="40" y="68" width="4" height="4" fill="#c68b67"/><rect x="44" y="68" width="4" height="4" fill="#c68b67"/><rect x="48" y="68" width="4" height="4" fill="#c68b67"/><rect x="52" y="68" width="4" height="4" fill="#c68b67"/><rect x="56" y="68" width="4" height="4" fill="#c68b67"/><rect x="60" y="68" width="4" height="4" fill="#a56f50"/><rect x="64" y="68" width="4" height="4" fill="#a56f50"/><rect x="68" y="68" width="4" height="4" fill="#c68b67"/><rect x="72" y="68" width="4" height="4" fill="#c68b67"/><rect x="76" y="68" width="4" height="4" fill="#c68b67"/><rect x="80" y="68" width="4" height="4" fill="#c68b67"/><rect x="84" y="68" width="4" height="4" fill="#c68b67"/><rect x="88" y="68" width="4" height="4" fill="#c68b67"/><rect x="92" y="68" width="4" height="4" fill="#c68b67"/><rect x="96" y="68" width="4" height="4" fill="#c68b67"/><rect x="100" y="68" width="4" height="4" fill="#c68b67"/><rect x="104" y="68" width="4" height="4" fill="#c68b67"/><rect x="108" y="68" width="4" height="4" fill="#1b1411"/><rect x="112" y="68" width="4" height="4" fill="#1b1411"/><rect x="12" y="72" width="4" height="4" fill="#1b1411"/><rect x="16" y="72" width="4" height="4" fill="#1b1411"/><rect x="20" y="72" width="4" height="4" fill="#c68b67"/><rect x="24" y="72" width="4" height="4" fill="#c68b67"/><rect x="28" y="72" width="4" height="4" fill="#c68b67"/><rect x="32" y="72" width="4" height="4" fill="#c68b67"/><rect x="36" y="72" width="4" height="4" fill="#c68b67"/><rect x="40" y="72" width="4" height="4" fill="#c68b67"/><rect x="44" y="72" width="4" height="4" fill="#c68b67"/><rect x="48" y="72" width="4" height="4" fill="#c68b67"/><rect x="52" y="72" width="4" height="4" fill="#c68b67"/><rect x="56" y="72" width="4" height="4" fill="#c68b67"/><rect x="60" y="72" width="4" height="4" fill="#c68b67"/><rect x="64" y="72" width="4" height="4" fill="#c68b67"/><rect x="68" y="72" width="4" height="4" fill="#c68b67"/><rect x="72" y="72" width="4" height="4" fill="#c68b67"/><rect x="76" y="72" width="4" height="4" fill="#c68b67"/><rect x="80" y="72" width="4" height="4" fill="#c68b67"/><rect x="84" y="72" width="4" height="4" fill="#c68b67"/><rect x="88" y="72" width="4" height="4" fill="#c68b67"/><rect x="92" y="72" width="4" height="4" fill="#c68b67"/><rect x="96" y="72" width="4" height="4" fill="#c68b67"/><rect x="100" y="72" width="4" height="4" fill="#c68b67"/><rect x="104" y="72" width="4" height="4" fill="#c68b67"/><rect x="108" y="72" width="4" height="4" fill="#3d2b22"/><rect x="112" y="72" width="4" height="4" fill="#1b1411"/><rect x="16" y="76" width="4" height="4" fill="#1b1411"/><rect x="20" y="76" width="4" height="4" fill="#c68b67"/><rect x="24" y="76" width="4" height="4" fill="#c68b67"/><rect x="28" y="76" width="4" height="4" fill="#c68b67"/><rect x="32" y="76" width="4" height="4" fill="#c68b67"/><rect x="36" y="76" width="4" height="4" fill="#c68b67"/><rect x="40" y="76" width="4" height="4" fill="#c68b67"/><rect x="44" y="76" width="4" height="4" fill="#c68b67"/><rect x="48" y="76" width="4" height="4" fill="#c68b67"/><rect x="52" y="76" width="4" height="4" fill="#c68b67"/><rect x="56" y="76" width="4" height="4" fill="#7a3b30"/><rect x="60" y="76" width="4" height="4" fill="#7a3b30"/><rect x="64" y="76" width="4" height="4" fill="#7a3b30"/><rect x="68" y="76" width="4" height="4" fill="#7a3b30"/><rect x="72" y="76" width="4" height="4" fill="#c68b67"/><rect x="76" y="76" width="4" height="4" fill="#c68b67"/><rect x="80" y="76" width="4" height="4" fill="#c68b67"/><rect x="84" y="76" width="4" height="4" fill="#c68b67"/><rect x="88" y="76" width="4" height="4" fill="#c68b67"/><rect x="92" y="76" width="4" height="4" fill="#c68b67"/><rect x="96" y="76" width="4" height="4" fill="#c68b67"/><rect x="100" y="76" width="4" height="4" fill="#c68b67"/><rect x="104" y="76" width="4" height="4" fill="#c68b67"/><rect x="108" y="76" width="4" height="4" fill="#1b1411"/><rect x="20" y="80" width="4" height="4" fill="#c68b67"/><rect x="24" y="80" width="4" height="4" fill="#c68b67"/><rect x="28" y="80" width="4" height="4" fill="#c68b67"/><rect x="32" y="80" width="4" height="4" fill="#c68b67"/><rect x="36" y="80" width="4" height="4" fill="#c68b67"/><rect x="40" y="80" width="4" height="4" fill="#c68b67"/><rect x="44" y="80" width="4" height="4" fill="#c68b67"/><rect x="48" y="80" width="4" height="4" fill="#c68b67"/><rect x="52" y="80" width="4" height="4" fill="#c68b67"/><rect x="56" y="80" width="4" height="4" fill="#c68b67"/><rect x="60" y="80" width="4" height="4" fill="#c68b67"/><rect x="64" y="80" width="4" height="4" fill="#c68b67"/><rect x="68" y="80" width="4" height="4" fill="#c68b67"/><rect x="72" y="80" width="4" height="4" fill="#c68b67"/><rect x="76" y="80" width="4" height="4" fill="#c68b67"/><rect x="80" y="80" width="4" height="4" fill="#c68b67"/><rect x="84" y="80" width="4" height="4" fill="#c68b67"/><rect x="88" y="80" width="4" height="4" fill="#c68b67"/><rect x="92" y="80" width="4" height="4" fill="#c68b67"/><rect x="96" y="80" width="4" height="4" fill="#c68b67"/><rect x="100" y="80" width="4" height="4" fill="#c68b67"/><rect x="104" y="80" width="4" height="4" fill="#c68b67"/><rect x="24" y="84" width="4" height="4" fill="#a56f50"/><rect x="28" y="84" width="4" height="4" fill="#c68b67"/><rect x="32" y="84" width="4" height="4" fill="#c68b67"/><rect x="36" y="84" width="4" height="4" fill="#c68b67"/><rect x="40" y="84" width="4" height="4" fill="#c68b67"/><rect x="44" y="84" width="4" height="4" fill="#c68b67"/><rect x="48" y="84" width="4" height="4" fill="#c68b67"/><rect x="52" y="84" width="4" height="4" fill="#c68b67"/><rect x="56" y="84" width="4" height="4" fill="#c68b67"/><rect x="60" y="84" width="4" height="4" fill="#c68b67"/><rect x="64" y="84" width="4" height="4" fill="#c68b67"/><rect x="68" y="84" width="4" height="4" fill="#c68b67"/><rect x="72" y="84" width="4" height="4" fill="#c68b67"/><rect x="76" y="84" width="4" height="4" fill="#c68b67"/><rect x="80" y="84" width="4" height="4" fill="#c68b67"/><rect x="84" y="84" width="4" height="4" fill="#c68b67"/><rect x="88" y="84" width="4" height="4" fill="#c68b67"/><rect x="92" y="84" width="4" height="4" fill="#c68b67"/><rect x="96" y="84" width="4" height="4" fill="#c68b67"/><rect x="100" y="84" width="4" height="4" fill="#a56f50"/><rect x="32" y="88" width="4" height="4" fill="#a56f50"/><rect x="36" y="88" width="4" height="4" fill="#a56f50"/><rect x="40" y="88" width="4" height="4" fill="#c68b67"/><rect x="44" y="88" width="4" height="4" fill="#c68b67"/><rect x="48" y="88" width="4" height="4" fill="#c68b67"/><rect x="52" y="88" width="4" height="4" fill="#c68b67"/><rect x="56" y="88" width="4" height="4" fill="#c68b67"/><rect x="60" y="88" width="4" height="4" fill="#c68b67"/><rect x="64" y="88" width="4" height="4" fill="#c68b67"/><rect x="68" y="88" width="4" height="4" fill="#c68b67"/><rect x="72" y="88" width="4" height="4" fill="#c68b67"/><rect x="76" y="88" width="4" height="4" fill="#c68b67"/><rect x="80" y="88" width="4" height="4" fill="#c68b67"/><rect x="84" y="88" width="4" height="4" fill="#c68b67"/><rect x="88" y="88" width="4" height="4" fill="#a56f50"/><rect x="92" y="88" width="4" height="4" fill="#a56f50"/><rect x="48" y="92" width="4" height="4" fill="#a56f50"/><rect x="52" y="92" width="4" height="4" fill="#a56f50"/><rect x="56" y="92" width="4" height="4" fill="#a56f50"/><rect x="60" y="92" width="4" height="4" fill="#a56f50"/><rect x="64" y="92" width="4" height="4" fill="#a56f50"/><rect x="68" y="92" width="4" height="4" fill="#a56f50"/><rect x="72" y="92" width="4" height="4" fill="#a56f50"/><rect x="76" y="92" width="4" height="4" fill="#a56f50"/><rect x="24" y="96" width="4" height="4" fill="#16161c"/><rect x="28" y="96" width="4" height="4" fill="#16161c"/><rect x="32" y="96" width="4" height="4" fill="#16161c"/><rect x="36" y="96" width="4" height="4" fill="#16161c"/><rect x="40" y="96" width="4" height="4" fill="#16161c"/><rect x="44" y="96" width="4" height="4" fill="#16161c"/><rect x="48" y="96" width="4" height="4" fill="#0a0a0d"/><rect x="52" y="96" width="4" height="4" fill="#0a0a0d"/><rect x="56" y="96" width="4" height="4" fill="#a56f50"/><rect x="60" y="96" width="4" height="4" fill="#a56f50"/><rect x="64" y="96" width="4" height="4" fill="#a56f50"/><rect x="68" y="96" width="4" height="4" fill="#a56f50"/><rect x="72" y="96" width="4" height="4" fill="#0a0a0d"/><rect x="76" y="96" width="4" height="4" fill="#0a0a0d"/><rect x="80" y="96" width="4" height="4" fill="#16161c"/><rect x="84" y="96" width="4" height="4" fill="#16161c"/><rect x="88" y="96" width="4" height="4" fill="#16161c"/><rect x="92" y="96" width="4" height="4" fill="#16161c"/><rect x="96" y="96" width="4" height="4" fill="#16161c"/><rect x="100" y="96" width="4" height="4" fill="#16161c"/><rect x="12" y="100" width="4" height="4" fill="#16161c"/><rect x="16" y="100" width="4" height="4" fill="#16161c"/><rect x="20" y="100" width="4" height="4" fill="#16161c"/><rect x="24" y="100" width="4" height="4" fill="#16161c"/><rect x="28" y="100" width="4" height="4" fill="#16161c"/><rect x="32" y="100" width="4" height="4" fill="#16161c"/><rect x="36" y="100" width="4" height="4" fill="#16161c"/><rect x="40" y="100" width="4" height="4" fill="#16161c"/><rect x="44" y="100" width="4" height="4" fill="#16161c"/><rect x="48" y="100" width="4" height="4" fill="#0a0a0d"/><rect x="52" y="100" width="4" height="4" fill="#0a0a0d"/><rect x="56" y="100" width="4" height="4" fill="#0a0a0d"/><rect x="60" y="100" width="4" height="4" fill="#a56f50"/><rect x="64" y="100" width="4" height="4" fill="#a56f50"/><rect x="68" y="100" width="4" height="4" fill="#0a0a0d"/><rect x="72" y="100" width="4" height="4" fill="#0a0a0d"/><rect x="76" y="100" width="4" height="4" fill="#0a0a0d"/><rect x="80" y="100" width="4" height="4" fill="#16161c"/><rect x="84" y="100" width="4" height="4" fill="#16161c"/><rect x="88" y="100" width="4" height="4" fill="#16161c"/><rect x="92" y="100" width="4" height="4" fill="#16161c"/><rect x="96" y="100" width="4" height="4" fill="#16161c"/><rect x="100" y="100" width="4" height="4" fill="#16161c"/><rect x="104" y="100" width="4" height="4" fill="#16161c"/><rect x="108" y="100" width="4" height="4" fill="#16161c"/><rect x="112" y="100" width="4" height="4" fill="#16161c"/><rect x="8" y="104" width="4" height="4" fill="#16161c"/><rect x="12" y="104" width="4" height="4" fill="#16161c"/><rect x="16" y="104" width="4" height="4" fill="#16161c"/><rect x="20" y="104" width="4" height="4" fill="#16161c"/><rect x="24" y="104" width="4" height="4" fill="#16161c"/><rect x="28" y="104" width="4" height="4" fill="#16161c"/><rect x="32" y="104" width="4" height="4" fill="#16161c"/><rect x="36" y="104" width="4" height="4" fill="#16161c"/><rect x="40" y="104" width="4" height="4" fill="#16161c"/><rect x="44" y="104" width="4" height="4" fill="#16161c"/><rect x="48" y="104" width="4" height="4" fill="#16161c"/><rect x="52" y="104" width="4" height="4" fill="#0a0a0d"/><rect x="56" y="104" width="4" height="4" fill="#0a0a0d"/><rect x="60" y="104" width="4" height="4" fill="#0a0a0d"/><rect x="64" y="104" width="4" height="4" fill="#0a0a0d"/><rect x="68" y="104" width="4" height="4" fill="#0a0a0d"/><rect x="72" y="104" width="4" height="4" fill="#0a0a0d"/><rect x="76" y="104" width="4" height="4" fill="#16161c"/><rect x="80" y="104" width="4" height="4" fill="#16161c"/><rect x="84" y="104" width="4" height="4" fill="#16161c"/><rect x="88" y="104" width="4" height="4" fill="#16161c"/><rect x="92" y="104" width="4" height="4" fill="#16161c"/><rect x="96" y="104" width="4" height="4" fill="#16161c"/><rect x="100" y="104" width="4" height="4" fill="#16161c"/><rect x="104" y="104" width="4" height="4" fill="#16161c"/><rect x="108" y="104" width="4" height="4" fill="#16161c"/><rect x="112" y="104" width="4" height="4" fill="#16161c"/><rect x="116" y="104" width="4" height="4" fill="#16161c"/><rect x="4" y="108" width="4" height="4" fill="#16161c"/><rect x="8" y="108" width="4" height="4" fill="#16161c"/><rect x="12" y="108" width="4" height="4" fill="#16161c"/><rect x="16" y="108" width="4" height="4" fill="#16161c"/><rect x="20" y="108" width="4" height="4" fill="#16161c"/><rect x="24" y="108" width="4" height="4" fill="#16161c"/><rect x="28" y="108" width="4" height="4" fill="#16161c"/><rect x="32" y="108" width="4" height="4" fill="#16161c"/><rect x="36" y="108" width="4" height="4" fill="#16161c"/><rect x="40" y="108" width="4" height="4" fill="#16161c"/><rect x="44" y="108" width="4" height="4" fill="#16161c"/><rect x="48" y="108" width="4" height="4" fill="#16161c"/><rect x="52" y="108" width="4" height="4" fill="#2d2d38"/><rect x="56" y="108" width="4" height="4" fill="#0a0a0d"/><rect x="60" y="108" width="4" height="4" fill="#0a0a0d"/><rect x="64" y="108" width="4" height="4" fill="#0a0a0d"/><rect x="68" y="108" width="4" height="4" fill="#0a0a0d"/><rect x="72" y="108" width="4" height="4" fill="#2d2d38"/><rect x="76" y="108" width="4" height="4" fill="#16161c"/><rect x="80" y="108" width="4" height="4" fill="#16161c"/><rect x="84" y="108" width="4" height="4" fill="#16161c"/><rect x="88" y="108" width="4" height="4" fill="#16161c"/><rect x="92" y="108" width="4" height="4" fill="#16161c"/><rect x="96" y="108" width="4" height="4" fill="#16161c"/><rect x="100" y="108" width="4" height="4" fill="#16161c"/><rect x="104" y="108" width="4" height="4" fill="#16161c"/><rect x="108" y="108" width="4" height="4" fill="#16161c"/><rect x="112" y="108" width="4" height="4" fill="#16161c"/><rect x="116" y="108" width="4" height="4" fill="#16161c"/><rect x="120" y="108" width="4" height="4" fill="#16161c"/><rect x="4" y="112" width="4" height="4" fill="#16161c"/><rect x="8" y="112" width="4" height="4" fill="#16161c"/><rect x="12" y="112" width="4" height="4" fill="#16161c"/><rect x="16" y="112" width="4" height="4" fill="#16161c"/><rect x="20" y="112" width="4" height="4" fill="#16161c"/><rect x="24" y="112" width="4" height="4" fill="#16161c"/><rect x="28" y="112" width="4" height="4" fill="#16161c"/><rect x="32" y="112" width="4" height="4" fill="#16161c"/><rect x="36" y="112" width="4" height="4" fill="#16161c"/><rect x="40" y="112" width="4" height="4" fill="#16161c"/><rect x="44" y="112" width="4" height="4" fill="#16161c"/><rect x="48" y="112" width="4" height="4" fill="#16161c"/><rect x="52" y="112" width="4" height="4" fill="#16161c"/><rect x="56" y="112" width="4" height="4" fill="#0a0a0d"/><rect x="60" y="112" width="4" height="4" fill="#0a0a0d"/><rect x="64" y="112" width="4" height="4" fill="#0a0a0d"/><rect x="68" y="112" width="4" height="4" fill="#0a0a0d"/><rect x="72" y="112" width="4" height="4" fill="#16161c"/><rect x="76" y="112" width="4" height="4" fill="#16161c"/><rect x="80" y="112" width="4" height="4" fill="#16161c"/><rect x="84" y="112" width="4" height="4" fill="#16161c"/><rect x="88" y="112" width="4" height="4" fill="#16161c"/><rect x="92" y="112" width="4" height="4" fill="#16161c"/><rect x="96" y="112" width="4" height="4" fill="#16161c"/><rect x="100" y="112" width="4" height="4" fill="#16161c"/><rect x="104" y="112" width="4" height="4" fill="#16161c"/><rect x="108" y="112" width="4" height="4" fill="#16161c"/><rect x="112" y="112" width="4" height="4" fill="#16161c"/><rect x="116" y="112" width="4" height="4" fill="#16161c"/><rect x="120" y="112" width="4" height="4" fill="#16161c"/><rect x="4" y="116" width="4" height="4" fill="#16161c"/><rect x="8" y="116" width="4" height="4" fill="#16161c"/><rect x="12" y="116" width="4" height="4" fill="#16161c"/><rect x="16" y="116" width="4" height="4" fill="#16161c"/><rect x="20" y="116" width="4" height="4" fill="#16161c"/><rect x="24" y="116" width="4" height="4" fill="#16161c"/><rect x="28" y="116" width="4" height="4" fill="#2d2d38"/><rect x="32" y="116" width="4" height="4" fill="#16161c"/><rect x="36" y="116" width="4" height="4" fill="#16161c"/><rect x="40" y="116" width="4" height="4" fill="#16161c"/><rect x="44" y="116" width="4" height="4" fill="#16161c"/><rect x="48" y="116" width="4" height="4" fill="#16161c"/><rect x="52" y="116" width="4" height="4" fill="#16161c"/><rect x="56" y="116" width="4" height="4" fill="#0a0a0d"/><rect x="60" y="116" width="4" height="4" fill="#0a0a0d"/><rect x="64" y="116" width="4" height="4" fill="#0a0a0d"/><rect x="68" y="116" width="4" height="4" fill="#0a0a0d"/><rect x="72" y="116" width="4" height="4" fill="#16161c"/><rect x="76" y="116" width="4" height="4" fill="#16161c"/><rect x="80" y="116" width="4" height="4" fill="#16161c"/><rect x="84" y="116" width="4" height="4" fill="#16161c"/><rect x="88" y="116" width="4" height="4" fill="#16161c"/><rect x="92" y="116" width="4" height="4" fill="#16161c"/><rect x="96" y="116" width="4" height="4" fill="#2d2d38"/><rect x="100" y="116" width="4" height="4" fill="#16161c"/><rect x="104" y="116" width="4" height="4" fill="#16161c"/><rect x="108" y="116" width="4" height="4" fill="#16161c"/><rect x="112" y="116" width="4" height="4" fill="#16161c"/><rect x="116" y="116" width="4" height="4" fill="#16161c"/><rect x="120" y="116" width="4" height="4" fill="#16161c"/><rect x="4" y="120" width="4" height="4" fill="#16161c"/><rect x="8" y="120" width="4" height="4" fill="#16161c"/><rect x="12" y="120" width="4" height="4" fill="#16161c"/><rect x="16" y="120" width="4" height="4" fill="#16161c"/><rect x="20" y="120" width="4" height="4" fill="#16161c"/><rect x="24" y="120" width="4" height="4" fill="#16161c"/><rect x="28" y="120" width="4" height="4" fill="#16161c"/><rect x="32" y="120" width="4" height="4" fill="#16161c"/><rect x="36" y="120" width="4" height="4" fill="#16161c"/><rect x="40" y="120" width="4" height="4" fill="#16161c"/><rect x="44" y="120" width="4" height="4" fill="#16161c"/><rect x="48" y="120" width="4" height="4" fill="#16161c"/><rect x="52" y="120" width="4" height="4" fill="#16161c"/><rect x="56" y="120" width="4" height="4" fill="#0a0a0d"/><rect x="60" y="120" width="4" height="4" fill="#0a0a0d"/><rect x="64" y="120" width="4" height="4" fill="#0a0a0d"/><rect x="68" y="120" width="4" height="4" fill="#0a0a0d"/><rect x="72" y="120" width="4" height="4" fill="#16161c"/><rect x="76" y="120" width="4" height="4" fill="#16161c"/><rect x="80" y="120" width="4" height="4" fill="#16161c"/><rect x="84" y="120" width="4" height="4" fill="#16161c"/><rect x="88" y="120" width="4" height="4" fill="#16161c"/><rect x="92" y="120" width="4" height="4" fill="#16161c"/><rect x="96" y="120" width="4" height="4" fill="#16161c"/><rect x="100" y="120" width="4" height="4" fill="#16161c"/><rect x="104" y="120" width="4" height="4" fill="#16161c"/><rect x="108" y="120" width="4" height="4" fill="#16161c"/><rect x="112" y="120" width="4" height="4" fill="#16161c"/><rect x="116" y="120" width="4" height="4" fill="#16161c"/><rect x="120" y="120" width="4" height="4" fill="#16161c"/></g></svg>